<?xml version="1.0" standalone="no"?>
<!DOCTYPE svg PUBLIC "-//W3C//DTD SVG 20010904//EN"
 "http://www.w3.org/TR/2001/REC-SVG-20010904/DTD/svg10.dtd">
<svg version="1.0" xmlns="http://www.w3.org/2000/svg"
 width="763.000000pt" height="429.000000pt" viewBox="0 0 763.000000 429.000000"
 preserveAspectRatio="xMidYMid meet">

<g transform="translate(0.000000,429.000000) scale(0.100000,-0.100000)"
fill="#000000" stroke="none">
<path d="M0 2145 l0 -2145 3815 0 3815 0 0 2145 0 2145 -3815 0 -3815 0 0
-2145z m4265 290 l-5 -94 37 24 c42 29 90 32 138 9 52 -24 65 -64 65 -198 l0
-116 -27 0 -28 0 2 95 c2 148 -15 185 -88 185 -45 0 -85 -36 -92 -83 -3 -17
-4 -69 -3 -114 l2 -83 -28 0 -28 0 0 235 0 235 29 0 30 0 -4 -95z m780 50 c0
-26 -3 -30 -29 -30 -36 0 -56 26 -36 50 8 9 24 15 39 13 22 -2 26 -8 26 -33z
m-2827 -9 c15 -8 40 -28 55 -44 l29 -30 -23 -16 c-22 -15 -24 -15 -44 8 -29
34 -60 48 -111 48 -62 0 -94 -23 -94 -67 0 -44 22 -59 120 -81 118 -26 150
-53 150 -127 0 -43 -24 -75 -74 -98 -80 -36 -182 -20 -243 37 l-38 36 25 20
24 20 20 -27 c69 -95 277 -56 225 41 -12 24 -31 31 -133 54 -92 20 -136 57
-136 115 0 42 34 93 73 110 42 18 141 19 175 1z m830 -114 c40 -29 62 -79 62
-144 -1 -132 -124 -211 -224 -143 l-36 24 0 -89 c0 -89 0 -90 -25 -90 l-25 0
0 230 0 230 25 0 c21 0 25 -5 25 -27 1 -25 2 -26 11 -10 28 48 131 58 187 19z
m373 5 c42 -28 70 -81 67 -127 l-3 -35 -122 -3 c-68 -1 -123 -5 -123 -8 0 -19
32 -74 48 -83 35 -19 106 -13 130 10 22 19 62 19 62 -1 0 -14 -60 -60 -86 -66
-41 -10 -110 2 -142 24 -91 65 -79 247 20 295 48 24 108 21 149 -6z m359 14
c0 -27 -15 -41 -42 -41 -73 0 -98 -46 -98 -185 0 -95 0 -95 -25 -95 l-25 0 0
160 c0 151 1 160 19 160 11 0 23 -9 26 -21 4 -12 10 -17 14 -12 3 5 17 17 31
26 26 18 100 24 100 8z m257 -2 c34 -13 73 -48 73 -65 0 -20 -43 -41 -48 -24
-19 57 -105 69 -153 21 -26 -26 -29 -36 -29 -89 0 -50 4 -66 26 -91 22 -27 32
-31 74 -31 41 0 52 4 73 29 18 22 31 28 46 24 26 -7 26 -14 0 -47 -79 -100
-239 -61 -269 65 -34 142 80 256 207 208z m763 -7 c50 -25 60 -52 60 -169 l0
-103 26 0 c21 0 25 -4 22 -22 -4 -30 -47 -35 -78 -10 -22 18 -24 18 -59 0 -43
-22 -92 -23 -130 -3 -33 16 -41 33 -41 80 0 50 42 80 130 95 76 13 89 24 69
62 -17 32 -28 38 -72 38 -30 0 -45 -7 -66 -29 -24 -25 -29 -27 -45 -15 -18 13
-18 15 -2 39 34 52 122 70 186 37z m613 -21 l32 -31 3 -130 4 -130 -31 0 -31
0 0 120 c0 139 -10 160 -78 160 -78 0 -102 -45 -102 -192 0 -87 0 -88 -25 -88
l-25 0 0 160 0 160 25 0 c19 0 25 -5 25 -22 l0 -21 23 20 c31 29 45 33 100 29
39 -3 55 -10 80 -35z m-2963 -89 c0 -141 9 -162 71 -162 85 0 109 40 109 185
0 95 0 95 25 95 l25 0 0 -160 0 -160 -25 0 c-19 0 -25 5 -25 23 -1 20 -2 21
-14 5 -42 -56 -174 -47 -207 14 -6 12 -12 75 -13 149 l-1 129 28 0 27 0 0
-118z m2590 -42 l0 -160 -25 0 -25 0 0 160 0 160 25 0 25 0 0 -160z m-2040
-395 l0 -45 -110 0 -110 0 0 -45 0 -45 90 0 90 0 0 -45 0 -45 -90 0 -90 0 0
-80 0 -80 -55 0 -55 0 0 215 0 215 165 0 165 0 0 -45z m1700 -10 l0 -55 50 0
50 0 0 -34 c0 -39 -14 -47 -67 -42 l-33 4 0 -84 c0 -80 1 -84 24 -90 14 -3 33
-3 44 0 19 6 31 -14 32 -51 0 -18 -68 -36 -117 -30 -74 8 -87 29 -93 150 -5
101 -5 102 -30 102 -22 0 -25 5 -28 37 -3 34 -1 37 25 40 24 3 28 8 31 40 3
35 6 38 50 52 26 7 50 14 55 15 4 1 7 -24 7 -54z m-1446 -59 c54 -22 66 -49
66 -142 0 -94 5 -114 30 -114 29 0 11 -64 -19 -68 -31 -5 -66 5 -84 23 -13 12
-19 12 -53 -5 -119 -61 -243 43 -156 129 21 22 45 31 100 41 55 10 72 17 72
30 0 41 -70 57 -90 20 -12 -22 -42 -25 -83 -7 l-27 12 19 31 c10 16 34 38 52
47 42 20 128 22 173 3z m801 0 c34 -15 81 -75 67 -87 -9 -7 -93 -32 -95 -27
-18 36 -27 43 -58 43 -25 0 -37 -6 -47 -25 -18 -35 -10 -119 14 -137 28 -21
62 -16 80 12 17 26 31 26 92 4 22 -8 22 -10 7 -40 -35 -66 -177 -91 -243 -42
-73 54 -94 151 -51 234 35 69 148 100 234 65z m365 -4 c50 -25 80 -74 80 -133
l0 -49 -110 0 c-115 0 -127 -5 -93 -42 21 -24 75 -23 97 1 16 18 20 18 57 3
48 -18 48 -37 0 -69 -93 -63 -228 -30 -267 64 -27 63 -14 144 29 192 47 51
141 66 207 33z m-900 -100 c0 -117 6 -132 52 -132 39 0 48 25 48 139 l0 101
60 0 60 0 0 -160 0 -160 -55 0 c-50 0 -55 2 -55 22 0 21 0 21 -26 -3 -21 -20
-36 -24 -86 -24 -53 0 -62 3 -84 28 -23 27 -24 35 -24 163 l0 134 55 0 55 0 0
-108z"/>
<path d="M2897 2319 c-52 -40 -55 -143 -6 -195 32 -34 100 -34 134 0 45 45 45
147 0 192 -31 31 -91 33 -128 3z"/>
<path d="M3283 2325 c-11 -8 -26 -28 -31 -45 l-11 -30 100 0 c99 0 100 0 94
23 -14 43 -46 67 -90 67 -22 0 -50 -7 -62 -15z"/>
<path d="M4733 2196 c-59 -15 -83 -31 -83 -55 0 -28 21 -41 66 -41 53 0 83 24
91 73 6 42 6 42 -74 23z"/>
<path d="M3168 1567 c-20 -5 -39 -16 -42 -24 -7 -18 10 -43 29 -43 23 0 57 35
53 56 -3 18 -7 19 -40 11z"/>
<path d="M4297 1672 c-30 -32 -21 -42 38 -42 46 0 55 3 55 18 0 42 -63 58 -93
24z"/>
</g>
</svg>
